<svg xmlns="http://www.w3.org/2000/svg" width="1123" height="794" stroke="#000" stroke-linecap="round" stroke-linejoin="round" fill="#fff" fill-rule="evenodd"><path d="M549.5 209.5c-82.9689 0-150 68.1011-150 152 0 84.0744 67.205 152 150 152 82.9689 0 150-68.1011 150-152s-67.205-152-150-152zm68.813 219.3745c-2.6869 4.5399-8.4239 5.8084-12.905 3.0867-35.3069-21.7929-79.57-26.6944-131.9069-14.7106-5.0152 1.0923-10.0311-1.9944-11.1091-7.0772s1.9689-10.1656 6.9841-11.2572c57.1689-13.2533 106.2659-7.6293 145.6978 16.8904 2.1451 1.295 3.6911 3.4038 4.297 5.8582s.2191 5.0525-1.072 7.2189zm18.2809-41.4067c-3.403 5.6298-10.575 7.2684-16.125 3.9905C580.147 366.3974 518.675 359.1348 471.008 373.66c-6.2721 1.8148-12.7221-1.6335-14.5171-7.8096-1.7909-6.3547 1.6121-12.8907 7.8841-14.7106 54.478-16.705 122.222-8.7158 168.638 20.1591 5.3761 3.268 6.984 10.5316 3.5859 16.1648zm1.6122-43.2249c-48.3891-29.0552-128.1372-31.7772-174.375-17.6126-7.35 2.3601-15.2341-1.9954-17.5641-9.4434s1.9689-15.4372 9.3189-17.7973c53.0482-16.34 141.2202-13.0778 196.7811 20.3387 6.633 3.9905 8.78 12.7114 4.838 19.4277-3.5861 6.9017-12.3659 9.0825-18.9989 5.0828z" stroke-linejoin="miter" fill-rule="nonzero" fill="#000"/></svg>