<svg viewBox="0 0 259.0689 310.77" width="75" height="100" xmlns="http://www.w3.org/2000/svg" xmlns:xlink="http://www.w3.org/1999/xlink" preserveAspectRatio="none"><defs></defs><style>.aD6z1nYkhcolor {fill:#9b1b1e;fill-opacity:1;}.amLfZnqBVUcolors-0 {fill:#9b1b1e;fill-opacity:1;}.anRrkDVLUAcolors-0 {fill:#9b1b1e;fill-opacity:1;}</style><g opacity="1" transform="rotate(0 0 209.7985)">
<svg width="259.0689" height="100.9715" x="0" y="209.7985" version="1.1" preserveAspectRatio="none" viewBox="2.8 -29.68 209.88 81.80000000000001">
  <g transform="matrix(1 0 0 1 0 0)" class="aD6z1nYkhcolor"><path d="M24.32-14.60Q26.72-13.76 28.08-11.98Q29.44-10.20 29.44-7.68L29.44-7.68Q29.44-4 26.48-2Q23.52 0 17.92 0L17.92 0L2.80 0L2.80-28L17.12-28Q22.48-28 25.28-26.02Q28.08-24.04 28.08-20.68L28.08-20.68Q28.08-18.68 27.10-17.10Q26.12-15.52 24.32-14.60L24.32-14.60ZM16.08-22.28L10.64-22.28L10.64-16.88L16.08-16.88Q20.08-16.88 20.08-19.60L20.08-19.60Q20.08-22.28 16.08-22.28L16.08-22.28ZM17.28-5.72Q21.44-5.72 21.44-8.56L21.44-8.56Q21.44-11.40 17.28-11.40L17.28-11.40L10.64-11.40L10.64-5.72L17.28-5.72Z M44.08 0.36Q40.60 0.36 37.80-1.08Q35-2.52 33.42-5.08Q31.84-7.64 31.84-10.88L31.84-10.88Q31.84-14.08 33.42-16.64Q35-19.20 37.78-20.62Q40.56-22.04 44.08-22.04L44.08-22.04Q47.60-22.04 50.40-20.62Q53.20-19.20 54.76-16.66Q56.32-14.12 56.32-10.88L56.32-10.88Q56.32-7.64 54.76-5.08Q53.20-2.52 50.40-1.08Q47.60 0.36 44.08 0.36L44.08 0.36ZM44.08-5.68Q46.08-5.68 47.36-7.06Q48.64-8.44 48.64-10.88L48.64-10.88Q48.64-13.28 47.36-14.64Q46.08-16 44.08-16L44.08-16Q42.08-16 40.80-14.64Q39.52-13.28 39.52-10.88L39.52-10.88Q39.52-8.44 40.80-7.06Q42.08-5.68 44.08-5.68L44.08-5.68Z M70.72 0.36Q67.24 0.36 64.44-1.08Q61.64-2.52 60.06-5.08Q58.48-7.64 58.48-10.88L58.48-10.88Q58.48-14.08 60.06-16.64Q61.64-19.20 64.42-20.62Q67.20-22.04 70.72-22.04L70.72-22.04Q74.24-22.04 77.04-20.62Q79.84-19.20 81.40-16.66Q82.96-14.12 82.96-10.88L82.96-10.88Q82.96-7.64 81.40-5.08Q79.84-2.52 77.04-1.08Q74.24 0.36 70.72 0.36L70.72 0.36ZM70.72-5.68Q72.72-5.68 74-7.06Q75.28-8.44 75.28-10.88L75.28-10.88Q75.28-13.28 74-14.64Q72.72-16 70.72-16L70.72-16Q68.72-16 67.44-14.64Q66.16-13.28 66.16-10.88L66.16-10.88Q66.16-8.44 67.44-7.06Q68.72-5.68 70.72-5.68L70.72-5.68Z M102.40 0L96.32-7.60L94.08-5.32L94.08 0L86.48 0L86.48-29.68L94.08-29.68L94.08-14.12L101.84-21.68L110.84-21.68L101.84-12.40L111.60 0L102.40 0Z M131.88 0L131.88-21.72L123.28-21.72L123.28-28L148.36-28L148.36-21.72L139.80-21.72L139.80 0L131.88 0Z M159.16-22.04Q164.56-22.04 167.40-19.58Q170.24-17.12 170.24-12.04L170.24-12.04L170.24 0L163.16 0L163.16-2.80Q161.52 0.36 156.76 0.36L156.76 0.36Q154.24 0.36 152.40-0.52Q150.56-1.40 149.62-2.90Q148.68-4.40 148.68-6.32L148.68-6.32Q148.68-9.40 151.04-11.10Q153.40-12.80 158.32-12.80L158.32-12.80L162.64-12.80Q162.44-16.24 158.04-16.24L158.04-16.24Q156.48-16.24 154.88-15.74Q153.28-15.24 152.16-14.36L152.16-14.36L149.60-19.52Q151.40-20.72 153.98-21.38Q156.56-22.04 159.16-22.04L159.16-22.04ZM158.88-4.44Q160.20-4.44 161.20-5.08Q162.20-5.72 162.64-6.96L162.64-6.96L162.64-8.84L159.36-8.84Q156.04-8.84 156.04-6.64L156.04-6.64Q156.04-5.64 156.80-5.04Q157.56-4.44 158.88-4.44L158.88-4.44Z M175.04 0L175.04-29.68L182.64-29.68L182.64 0L175.04 0Z M203.48 0L197.40-7.60L195.16-5.32L195.16 0L187.56 0L187.56-29.68L195.16-29.68L195.16-14.12L202.92-21.68L211.92-21.68L202.92-12.40L212.68 0L203.48 0Z M52.54 44L52.54 22.28L43.94 22.28L43.94 16L69.02 16L69.02 22.28L60.46 22.28L60.46 44L52.54 44Z M80.30 44.36Q76.82 44.36 74.02 42.92Q71.22 41.48 69.64 38.92Q68.06 36.36 68.06 33.12L68.06 33.12Q68.06 29.92 69.64 27.36Q71.22 24.80 74.00 23.38Q76.78 21.96 80.30 21.96L80.30 21.96Q83.82 21.96 86.62 23.38Q89.42 24.80 90.98 27.34Q92.54 29.88 92.54 33.12L92.54 33.12Q92.54 36.36 90.98 38.92Q89.42 41.48 86.62 42.92Q83.82 44.36 80.30 44.36L80.30 44.36ZM80.30 38.32Q82.30 38.32 83.58 36.94Q84.86 35.56 84.86 33.12L84.86 33.12Q84.86 30.72 83.58 29.36Q82.30 28 80.30 28L80.30 28Q78.30 28 77.02 29.36Q75.74 30.72 75.74 33.12L75.74 33.12Q75.74 35.56 77.02 36.94Q78.30 38.32 80.30 38.32L80.30 38.32Z M111.50 14.32L119.10 14.32L119.10 44L111.86 44L111.86 41.84Q109.74 44.36 105.50 44.36L105.50 44.36Q102.54 44.36 100.10 42.98Q97.66 41.60 96.24 39.04Q94.82 36.48 94.82 33.12L94.82 33.12Q94.82 29.76 96.24 27.22Q97.66 24.68 100.10 23.32Q102.54 21.96 105.50 21.96L105.50 21.96Q109.38 21.96 111.50 24.20L111.50 24.20L111.50 14.32ZM107.10 38.32Q109.06 38.32 110.34 36.94Q111.62 35.56 111.62 33.12L111.62 33.12Q111.62 30.72 110.36 29.36Q109.10 28 107.10 28L107.10 28Q105.10 28 103.82 29.36Q102.54 30.72 102.54 33.12L102.54 33.12Q102.54 35.56 103.82 36.94Q105.10 38.32 107.10 38.32L107.10 38.32Z M133.22 21.96Q138.62 21.96 141.46 24.42Q144.30 26.88 144.30 31.96L144.30 31.96L144.30 44L137.22 44L137.22 41.20Q135.58 44.36 130.82 44.36L130.82 44.36Q128.30 44.36 126.46 43.48Q124.62 42.60 123.68 41.10Q122.74 39.60 122.74 37.68L122.74 37.68Q122.74 34.60 125.10 32.90Q127.46 31.20 132.38 31.20L132.38 31.20L136.70 31.20Q136.50 27.76 132.10 27.76L132.10 27.76Q130.54 27.76 128.94 28.26Q127.34 28.76 126.22 29.64L126.22 29.64L123.66 24.48Q125.46 23.28 128.04 22.62Q130.62 21.96 133.22 21.96L133.22 21.96ZM132.94 39.56Q134.26 39.56 135.26 38.92Q136.26 38.28 136.70 37.04L136.70 37.04L136.70 35.16L133.42 35.16Q130.10 35.16 130.10 37.36L130.10 37.36Q130.10 38.36 130.86 38.96Q131.62 39.56 132.94 39.56L132.94 39.56Z M164.30 22.32L171.54 22.32L162.18 44.88Q160.54 48.88 158.18 50.50Q155.82 52.12 152.42 52.12L152.42 52.12Q150.70 52.12 148.96 51.58Q147.22 51.04 146.14 50.16L146.14 50.16L148.78 44.84Q149.42 45.44 150.32 45.78Q151.22 46.12 152.14 46.12L152.14 46.12Q153.22 46.12 153.92 45.68Q154.62 45.24 155.10 44.28L155.10 44.28L145.82 22.32L153.62 22.32L158.94 35.56L164.30 22.32Z"/></g>
</svg>
</g><g opacity="1" transform="rotate(0 82.00940000000003 120.65449999999998)">
<svg width="95.05" height="70.9893" x="82.00940000000003" y="120.65449999999998" version="1.1" preserveAspectRatio="none" viewBox="3.432244300842285 15.22100067138672 93.13619232177734 69.55994415283203">
  <g transform="matrix(1 0 0 1 0 0)" class="amLfZnqBVUcolors-0"><path fill-rule="evenodd" clip-rule="evenodd" d="M56.558,84.771c-10.939,0-21.877,0.027-32.815-0.008  C14.12,84.732,5.8,77.948,3.922,68.547C2.726,62.558,3.836,56.809,6,51.179c4.373-11.378,9.922-22.19,15.659-32.916  c1.081-2.02,2.875-3.02,5.121-3.023c15.449-0.026,30.898-0.024,46.347-0.002c2.184,0.003,3.91,0.989,5.046,2.878  c5.779,9.605,11.575,19.199,17.299,28.838c1.942,3.271,1.203,7.922-1.418,10.583c-0.345,0.351-0.595,0.958-0.602,1.451  c-0.05,3.664-0.063,7.329,0.008,10.993c0.012,0.577,0.376,1.279,0.801,1.693c2.443,2.378,3.046,7.872,1.067,10.639  c-1.287,1.799-3.104,2.471-5.277,2.467C78.886,84.76,67.722,84.771,56.558,84.771z M90.685,76.002c-0.835,0-1.499,0-2.164,0  c-12.182,0-24.363,0.001-36.544,0c-9.475,0-18.949,0.043-28.423-0.018c-7.191-0.046-12.579-6.92-11.004-13.903  c1.245-5.521,5.725-9.016,11.677-9.02c21.374-0.015,42.749-0.006,64.122-0.012c0.768-0.001,1.535-0.073,2.734-0.133  c-0.368-1.518-0.393-2.944-1.024-4.016c-5.29-8.98-10.701-17.889-16.042-26.84c-0.519-0.869-1.084-1.252-2.135-1.249  c-14.607,0.033-29.213,0.032-43.82,0.001c-1.041-0.002-1.646,0.309-2.104,1.256c-4.198,8.661-8.582,17.237-12.599,25.981  c-2.292,4.987-4.378,10.094-4.277,15.834c0.157,8.899,6.362,15.266,15.245,15.27c21.487,0.012,42.974,0.005,64.46,0.001  c0.603,0,1.205-0.051,1.899-0.082C90.685,78.049,90.685,77.171,90.685,76.002z M87.737,55.689c-0.876,0-1.594,0-2.312,0  c-15.382,0-30.764,0-46.146,0c-5.127,0.001-10.255-0.039-15.381,0.019c-3.238,0.036-5.785,1.407-7.681,4.406  c23.99,0,47.715,0,71.52,0C87.737,58.666,87.737,57.33,87.737,55.689z M16.168,68.969c2.184,3.142,4.892,4.408,8.279,4.407  c19.889-0.006,39.777-0.002,59.666-0.002c3.911,0,3.913,0,3.671-3.907c-0.01-0.152-0.107-0.3-0.182-0.498  C63.9,68.969,40.218,68.969,16.168,68.969z M87.745,62.775c-0.744,0-1.35,0-1.955,0c-22.874,0-45.748,0-68.622,0  c-0.451,0-0.915-0.055-1.347,0.038c-0.273,0.059-0.604,0.291-0.725,0.536c-0.806,1.627,0.032,2.971,1.826,2.971  c22.987,0.001,45.973,0.001,68.96,0.001c0.598,0,1.195,0,1.862,0C87.745,65.077,87.745,64.075,87.745,62.775z"></path></g>
</svg>
</g><g opacity="1" transform="rotate(0 85.55150000000003 0)">
<svg width="87.9657" height="136.6545" x="85.55150000000003" y="0" version="1.1" preserveAspectRatio="none" viewBox="22.993242263793945 8.045000076293945 54.01360321044922 83.91000366210938">
  <g transform="matrix(1 0 0 1 0 0)" class="anRrkDVLUAcolors-0"><g><path d="M47.684,71.105h4.632c3.309,0,6.83-2.506,6.949-5.779V54.68h-8.998v-3.316h8.998v-2.318h-8.998v-3.316h8.998v-2.583h-8.998   V39.83h8.884c-0.588-3.195-3.527-5.792-6.836-5.792h-4.632c-3.703,0-6.951,3.248-6.951,6.95v23.167   C40.733,67.857,43.981,71.105,47.684,71.105z"></path><path d="M76.668,18.471c-0.523-0.642-1.469-0.735-2.111-0.212l-13.449,11c-0.642,0.524-0.736,1.47-0.212,2.11   c0.296,0.363,0.728,0.551,1.162,0.551c0.334,0,0.67-0.111,0.948-0.339l13.451-11C77.098,20.057,77.192,19.112,76.668,18.471z"></path><path d="M50,28.334c0.828,0,1.5-0.672,1.5-1.5V9.545c0-0.828-0.671-1.5-1.5-1.5s-1.5,0.672-1.5,1.5v17.289   C48.5,27.663,49.172,28.334,50,28.334z"></path><path d="M37.942,31.92c0.435,0,0.865-0.188,1.162-0.551c0.524-0.641,0.43-1.586-0.211-2.11l-13.451-11   c-0.642-0.523-1.586-0.43-2.11,0.212c-0.524,0.641-0.43,1.586,0.212,2.11l13.449,11C37.272,31.809,37.608,31.92,37.942,31.92z"></path><path d="M65.07,53.742c-1.271,0-2.303,1.031-2.303,2.305h-0.026v8.107c0,5.65-4.773,10.426-10.425,10.426h-4.632   c-5.651,0-10.426-4.775-10.426-10.426v-8.107h-0.026c0-1.273-1.031-2.305-2.304-2.305c-1.271,0-2.303,1.031-2.303,2.305v8.107   c0,8.162,6.895,15.059,15.059,15.059v8.107h-9.847v0.031c-1.25,0.025-2.257,1.043-2.257,2.299c0,1.258,1.007,2.273,2.257,2.299   v0.006h24.325v-0.01c1.229-0.049,2.213-1.053,2.213-2.295c0-1.24-0.984-2.244-2.213-2.295V87.32h-9.846v-8.107   c8.162,0,15.059-6.896,15.059-15.059v-8.107C67.375,54.773,66.344,53.742,65.07,53.742z"></path></g></g>
</svg>
</g></svg>